# xmcd CD database file generated by Grip 3.1.4
# 
# Track frame offsets:
#       150
#       28618
#       55030
#       73812
#       86228
#       100161
#       118432
#       127350
#       146807
#       168597
#       180631
#       192607
# 
# Disc length: 2741 seconds
# 
# Revision: 1
# Processed by: cddbd v1.5.1PL0 Copyright (c) Steve Scherf et al.
# Submitted via: Grip 3.1.4
# 
DISCID=c10ab30c
DTITLE=Hans Theessink and Gerry Lockran - Cushioned For A Soft Ride Inside
DYEAR=1981
DGENRE=Blues
TTITLE0=Cottonfields - Breaking Down The Henhouse
TTITLE1=New Cocaine Blues
TTITLE2=Midnight Special
TTITLE3=Morning Train
TTITLE4=Going To Brownsville
TTITLE5=Will The Circle Be Unbroken
TTITLE6=Come Back Baby
TTITLE7=Love Sweet Love
TTITLE8=Sidewalk Hobo
TTITLE9=Too Many Drivers
TTITLE10=Charly Stone
TTITLE11=All The Good Times
EXTD=
EXTT0=
EXTT1=
EXTT2=
EXTT3=
EXTT4=
EXTT5=
EXTT6=
EXTT7=
EXTT8=
EXTT9=
EXTT10=
EXTT11=
PLAYORDER=
